<?xml version="1.0" encoding="UTF-8"?> <svg xmlns="http://www.w3.org/2000/svg" xmlns:v="https://vecta.io/nano" viewBox="0 0 141.51 70"><g fill="#231f20" fill-rule="evenodd"><path d="M58.8 27.26v-2.35a7.08 7.08 0 0 0-.5-2.78 3.75 3.75 0 0 0-1.54-1.77 5.16 5.16 0 0 0-2.64-.62 4.37 4.37 0 0 0-3.52 1.35 5.71 5.71 0 0 0-1.15 3.82v2.35c0 3.44 1.55 5.16 4.67 5.16a4.43 4.43 0 0 0 3.52-1.34 5.7 5.7 0 0 0 1.16-3.82m3.06 0a7.51 7.51 0 0 1-2 5.5 7.66 7.66 0 0 1-5.74 2 7.69 7.69 0 0 1-5.74-2 7.54 7.54 0 0 1-2-5.5v-2.35a7.56 7.56 0 0 1 2-5.52 7.73 7.73 0 0 1 5.74-2 7.7 7.7 0 0 1 5.74 2 7.53 7.53 0 0 1 2 5.52zm-21.42-2.39v-.28a6.57 6.57 0 0 0-.5-2.79 3.07 3.07 0 0 0-1.5-1.57 5.75 5.75 0 0 0-2.54-.49c-3.12 0-4.67 1.62-4.67 4.85v.28zm-4.37 7.55a13.09 13.09 0 0 0 2.26-.19 19.24 19.24 0 0 0 2.18-.52l1.7-.55a.62.62 0 0 1 .59 0 .44.44 0 0 1 .21.41v1.26c0 .22-.16.4-.48.57a15.08 15.08 0 0 1-6.46 1.41 10.81 10.81 0 0 1-4-.68 5.89 5.89 0 0 1-2.86-2.34 7.84 7.84 0 0 1-1.09-4.39v-2.81a7 7 0 0 1 2-5.29 7.92 7.92 0 0 1 5.7-1.94 9.09 9.09 0 0 1 4.18.88 5.82 5.82 0 0 1 2.59 2.53 8 8 0 0 1 .87 3.82V27H31.23v.43a5.32 5.32 0 0 0 1.18 3.87 5 5 0 0 0 3.66 1.12zm-13.74-5.26v-2.22a6.19 6.19 0 0 0-1-3.91 4.26 4.26 0 0 0-3.5-1.29 28.42 28.42 0 0 0-4.06.21v12.28l4.06.19a4.23 4.23 0 0 0 3.51-1.3 6.4 6.4 0 0 0 .99-3.96zm3.06 0a7.9 7.9 0 0 1-1.89 5.61c-1.25 1.35-3.16 2-5.7 2a38.62 38.62 0 0 1-6.38-.51 1.25 1.25 0 0 1-.61-.23.78.78 0 0 1-.13-.49V11.92a.62.62 0 0 1 .17-.41.58.58 0 0 1 .47-.18h1.76a.69.69 0 0 1 .47.18.52.52 0 0 1 .19.41v5.76a17.21 17.21 0 0 1 1.95-.25l2.11-.07a10.06 10.06 0 0 1 3.33.5 6.3 6.3 0 0 1 2.37 1.46 5.82 5.82 0 0 1 1.42 2.35 10.44 10.44 0 0 1 .47 3.27z"></path><path d="M38.13 57.17V42.26a.68.68 0 0 1 .63-.74l3.91-.74a23.06 23.06 0 0 1 3.07-.23 8.3 8.3 0 0 1 2.3.31 3.89 3.89 0 0 1 1.71.93 14.82 14.82 0 0 1 5.77-1.27 7.18 7.18 0 0 1 2.92.55 4.1 4.1 0 0 1 2 1.81 6.62 6.62 0 0 1 .73 3.34v11a.57.57 0 0 1-.2.44.72.72 0 0 1-.49.17h-1.7a.71.71 0 0 1-.47-.18.54.54 0 0 1-.23-.43v-11a3.29 3.29 0 0 0-.83-2.57 3.38 3.38 0 0 0-2.32-.74 13.08 13.08 0 0 0-4.08.83 8.18 8.18 0 0 1 .32 2.41v11a.59.59 0 0 1-.18.42.55.55 0 0 1-.44.19h-1.86a.54.54 0 0 1-.42-.18.61.61 0 0 1-.17-.43v-11a5.63 5.63 0 0 0-.29-2 1.64 1.64 0 0 0-.86-1 3.58 3.58 0 0 0-1.52-.26 18 18 0 0 0-4.25.53v13.75a.57.57 0 0 1-.62.61h-1.85a.54.54 0 0 1-.41-.18.61.61 0 0 1-.17-.43m-6.89-1.58v-6h-2.58a16.78 16.78 0 0 0-2.64.16 4.38 4.38 0 0 0-1.57.52 2 2 0 0 0-.83.92 3.56 3.56 0 0 0-.25 1.41v.27a3.37 3.37 0 0 0 .39 1.74 2.23 2.23 0 0 0 1.37 1 9.88 9.88 0 0 0 2.76.31h1.34c.43 0 .82-.06 1.16-.1a7.89 7.89 0 0 0 .85-.23zm3.05 1a.6.6 0 0 1-.52.68 23.44 23.44 0 0 1-2.75.54 26.32 26.32 0 0 1-3.13.18q-4.07 0-5.83-1.22a4.37 4.37 0 0 1-1.78-3.89v-.27a4.69 4.69 0 0 1 .82-2.84 5 5 0 0 1 2.67-1.64 18 18 0 0 1 4.89-.54h2.58v-1.22a3.48 3.48 0 0 0-.84-2.68 4.3 4.3 0 0 0-2.89-.75 16.12 16.12 0 0 0-2.7.19 26.68 26.68 0 0 0-2.61.58.84.84 0 0 1-.59 0 .41.41 0 0 1-.22-.39v-1.2c0-.25.16-.44.49-.56a16.58 16.58 0 0 1 2.36-.66 15.9 15.9 0 0 1 3.27-.34c4.53 0 6.78 1.94 6.78 5.82zm-16.06.71c0 .31-.21.48-.63.54a19.49 19.49 0 0 1-2.26.15 5.93 5.93 0 0 1-3.63-.86c-.73-.57-1.1-1.66-1.1-3.28V43.06l-3.37-.33c-.45 0-.67-.22-.67-.56v-.85c0-.36.22-.54.67-.54h3.37v-3l.1-3.94a8.28 8.28 0 0 1 3 .43 30.39 30.39 0 0 1 0 3.17v3.38h3.75a.71.71 0 0 1 .49.18.55.55 0 0 1 .2.44v1a.54.54 0 0 1-.22.44.71.71 0 0 1-.47.18h-3.78v10.8a2.26 2.26 0 0 0 .38 1.59 2.27 2.27 0 0 0 1.48.35h2c.48 0 .73.15.73.44z"></path></g><g fill="none" stroke="#231f20" stroke-width=".22"><path d="M64.68,33.29,64.63,2.5H5.05v65H64.63V55.76c0-5-.57-10,.24-14.89,1.92-3.78,5-16.38,5.18-21.26" stroke-miterlimit="2.61"></path><g stroke-miterlimit="22.93"><path d="M65.48 34.59a5.87 5.87 0 0 1-.69 6.41 5 5 0 0 1-2.88-4.66 17.51 17.51 0 0 1 .24-3.34l.62-3a20.39 20.39 0 0 1 2.71 4.59zm5.94-8.47c.32 2.79-1.06 4.52-3.25 5.75a5.1 5.1 0 0 1-1.26-5.7 15.87 15.87 0 0 1 1.56-3l1.85-2.57a21.13 21.13 0 0 1 1.1 5.52z"></path><path d="M64.89,41.88a19,19,0,0,0-1.07-6.25"></path></g></g><path d="M133.75 30.8a1.54 1.54 0 0 0 .05-1.05c0-.09-.28-.08-.77 0-.11.13-.12.43-.05.91a1.69 1.69 0 0 0 .3.13c.05.07-.06.42-.3 1 0 .08.05.16.19.21a3.05 3.05 0 0 0 .58-1.24M129 27.14a1.3 1.3 0 0 0 0 .28v.28 1.83 1a.68.68 0 0 0 .37.19.65.65 0 0 0 .43-.05v-.94-1.35-3.58a1.32 1.32 0 0 1 .81-.91 2.75 2.75 0 0 1 1-.23.84.84 0 0 0 .09-.77 1.82 1.82 0 0 0-1.06.18 1.53 1.53 0 0 0-.82.78V23c-.1-.14-.36-.1-.71.11v.84zM126.51 24a6.58 6.58 0 0 1 0 3l-.38.22a11.15 11.15 0 0 1-2.06.14 7.61 7.61 0 0 1 .42-3.32 2.07 2.07 0 0 1 1.13-.42 1 1 0 0 1 .89.38zm.33 5.65a2.53 2.53 0 0 1-2.24.26 3.64 3.64 0 0 1-.45-1.81 11.56 11.56 0 0 0 2.44-.27l.45-.33a5.48 5.48 0 0 0 0-4.08c-.2-.41-.7-.6-1.5-.56a2 2 0 0 0-1.54.54 6.81 6.81 0 0 0-.64 3.62 6.7 6.7 0 0 0 .53 3.36 3.55 3.55 0 0 0 1.57.39 3.51 3.51 0 0 0 1.66-.67c-.05-.32-.12-.46-.28-.5zm-7-6v.82 5.3c0 .63.36.94 1.07.94.51 0 .78-.08.78-.25 0-.36 0-.55-.14-.55h-.27a.91.91 0 0 1-.28 0c-.27 0-.39-.22-.39-.64v-2.4-1.67-1.6h.27.63s.07-.12.07-.32 0-.46-.14-.46h-.83v-1.6a.5.5 0 0 0-.26-.06.57.57 0 0 0-.46.14 1.63 1.63 0 0 0-.09.68v.87h-2.12v-1.63a.5.5 0 0 0-.26-.06.57.57 0 0 0-.46.14 1.63 1.63 0 0 0-.09.68v.89a5.59 5.59 0 0 1-.82 0v.42.2l.19.19h.62v.82 5.3c0 .63.36.94 1.07.94.51 0 .78-.08.78-.25 0-.36 0-.55-.14-.55h-.27a.91.91 0 0 1-.28 0c-.27 0-.39-.22-.39-.64v-2.43-1.67-1.6h.37 1.86zm-6.19.32a6.58 6.58 0 0 1 0 3l-.38.22a11.2 11.2 0 0 1-2.07.14 7.75 7.75 0 0 1 .4-3.33 2.07 2.07 0 0 1 1.12-.42 1 1 0 0 1 .9.42zm.32 5.65a2.51 2.51 0 0 1-2.23.26 3.75 3.75 0 0 1-.46-1.81 11.49 11.49 0 0 0 2.44-.27l.46-.33a5.58 5.58 0 0 0 0-4.08c-.21-.41-.71-.6-1.5-.56a1.93 1.93 0 0 0-1.54.54 6.72 6.72 0 0 0-.64 3.62 6.7 6.7 0 0 0 .53 3.36 3.55 3.55 0 0 0 1.57.39 3.51 3.51 0 0 0 1.66-.67c-.08-.29-.17-.43-.32-.47zm-8.44-5.36l.11-.42a1.27 1.27 0 0 1 1.09-.26 1.55 1.55 0 0 1 .86.31c.33.3.5 1.36.5 3.19a10.73 10.73 0 0 1-.37 2.32 1.55 1.55 0 0 1-1.87.58 1.37 1.37 0 0 1-.29-.16q0-.37 0-1zm-.69.93v1.31.72.72 2.61a.47.47 0 0 0 .27.07 4.88 4.88 0 0 0 2 0c.8-.17 1.27-.48 1.42-1a11.57 11.57 0 0 0 .38-1.94q0-.28 0-1.11v-1.11a3.27 3.27 0 0 0-.54-1.92 1.74 1.74 0 0 0-1.08-.65 3 3 0 0 0-1.78.19v-3.27c-.08-.08-.2-.09-.41-.08a.65.65 0 0 0-.4.15 6.07 6.07 0 0 0 0 1l.07.93v1.87a1.29 1.29 0 0 0 0 .23zm-7.12 0v-1.31-.72a4.27 4.27 0 0 1 0-.72v-2.61a.7.7 0 0 0-.72.06v2.75V25v2.83 2.8c.07.08.2.09.4.08a.75.75 0 0 0 .41-.14 5.86 5.86 0 0 0 0-1c0-.49-.06-.8-.06-1v-2.14zM94.54 24a6.31 6.31 0 0 1 0 3l-.37.22a11.26 11.26 0 0 1-2.07.14 7.6 7.6 0 0 1 .43-3.36 2.07 2.07 0 0 1 1.12-.42 1 1 0 0 1 .89.42zm.33 5.65a2.53 2.53 0 0 1-2.24.26 3.75 3.75 0 0 1-.45-1.81 11.49 11.49 0 0 0 2.44-.27l.46-.33a5.58 5.58 0 0 0 0-4.08c-.21-.41-.71-.6-1.51-.56a1.92 1.92 0 0 0-1.53.54 6.62 6.62 0 0 0-.64 3.6 6.7 6.7 0 0 0 .53 3.36 3.52 3.52 0 0 0 1.57.39 3.44 3.44 0 0 0 1.65-.67c-.04-.3-.15-.44-.28-.48zM89 24a6.31 6.31 0 0 1 0 3l-.37.22a11.26 11.26 0 0 1-2.07.14A7.75 7.75 0 0 1 87 24a2.07 2.07 0 0 1 1.12-.42A1 1 0 0 1 89 24zm.33 5.65a2.51 2.51 0 0 1-2.23.26 3.64 3.64 0 0 1-.46-1.81 11.49 11.49 0 0 0 2.44-.27l.46-.33a5.58 5.58 0 0 0 0-4.08c-.21-.41-.71-.6-1.51-.56a1.92 1.92 0 0 0-1.53.54 6.62 6.62 0 0 0-.67 3.6 6.7 6.7 0 0 0 .53 3.36 3.52 3.52 0 0 0 1.57.39 3.44 3.44 0 0 0 1.65-.67c-.04-.3-.14-.44-.28-.48zm-5.13-9.13c.11 0 .2-.14.27-.34s0-.3-.07-.31a10.41 10.41 0 0 0-3.77.29 6.15 6.15 0 0 0-.12 1.52v2.46 2.53.74.73 1.32a8.32 8.32 0 0 0 0 1.22 1.76 1.76 0 0 0 .81-.11l-.06-.8v-.59a5.29 5.29 0 0 0 0-.71 5.56 5.56 0 0 1 0-2.09l.14-.38a2.81 2.81 0 0 1 .89-.1 6.65 6.65 0 0 0 1 0 .52.52 0 0 0 .22-.31.42.42 0 0 0 0-.38c-1.52-.34-2.25-.4-2.19-.2a9.91 9.91 0 0 1-.06-1 10.24 10.24 0 0 1 .17-3.14 5.17 5.17 0 0 1 2.74-.4zm49.59 23.18a.7.7 0 0 0 0 .29v2.11 1a.74.74 0 0 0 .8.14v-.94-1.34-3.6a1.29 1.29 0 0 1 .82-.91 2.66 2.66 0 0 1 .95-.24.85.85 0 0 0 .1-.76 1.84 1.84 0 0 0-1.07.17 1.51 1.51 0 0 0-.81.78v-.89c-.11-.14-.36-.09-.72.11q0 .5 0 .84zm-2.46-3.19a6.35 6.35 0 0 1 0 3l-.37.21a12.31 12.31 0 0 1-2.07.15 7.59 7.59 0 0 1 .42-3.32 2 2 0 0 1 1.13-.42 1 1 0 0 1 .89.38zm.33 5.65a2.53 2.53 0 0 1-2.24.27 3.68 3.68 0 0 1-.45-1.82 10.86 10.86 0 0 0 2.44-.27l.45-.32a5.5 5.5 0 0 0 0-4.09c-.2-.4-.7-.59-1.5-.56a1.91 1.91 0 0 0-1.53.55 6.58 6.58 0 0 0-.64 3.61 6.75 6.75 0 0 0 .53 3.37 3.66 3.66 0 0 0 1.56.39 3.46 3.46 0 0 0 1.66-.68c-.05-.26-.14-.4-.28-.45zm-5.09-8.09a4.93 4.93 0 0 1 0-1c-.38-.19-.66-.18-.86 0a1.56 1.56 0 0 0 0 .86c0 .08.17.13.44.13s.41.06.42.01zm-.78 6.56v2.45a.46.46 0 0 0 .45.17.52.52 0 0 0 .36-.12l-.09-5.62.06-1.86a.41.41 0 0 0-.36-.2.43.43 0 0 0-.45.25zm-5.11.4v-2.31-2.32a1.45 1.45 0 0 1 1.14-.28 1.83 1.83 0 0 1 .9.28c.32.3.5 1.36.5 3.19a10.53 10.53 0 0 1-.38 2.32 1.52 1.52 0 0 1-1.86.58 1.59 1.59 0 0 1-.3-.16v-1.12-.15zm-.74 2.54v2.61a.72.72 0 0 0 .72-.06l.05-2.76v-.14a4.32 4.32 0 0 0 1.81-.14 1.52 1.52 0 0 0 1.16-.9 11.48 11.48 0 0 0 .37-1.94v-1.12-1.11a3.23 3.23 0 0 0-.53-1.92 2.2 2.2 0 0 0-1.63-.63 2.48 2.48 0 0 0-2 .58 6.83 6.83 0 0 1 0 1.41zM115.22 45v-2.31-2.29a1.45 1.45 0 0 1 1.14-.28 1.83 1.83 0 0 1 .9.28c.32.3.5 1.36.5 3.19a10.53 10.53 0 0 1-.38 2.32 1.52 1.52 0 0 1-1.86.58 1.59 1.59 0 0 1-.3-.16v-1.12-.15zm-.74 2.54v2.61a.72.72 0 0 0 .72-.06v-2.76-.14a4.32 4.32 0 0 0 1.81-.14 1.52 1.52 0 0 0 1.16-.9 11.48 11.48 0 0 0 .37-1.94v-1.12-1.11a3.23 3.23 0 0 0-.53-1.92 2.2 2.2 0 0 0-1.63-.63 2.48 2.48 0 0 0-2 .58 6.83 6.83 0 0 1 0 1.41zm-2.48-2.6v1a3 3 0 0 1-2 .7c-.27-.1-.41-.54-.41-1.31s.14-1.33.41-1.52a4 4 0 0 1 1.12-.42 2.32 2.32 0 0 0 1-.5l-.12 2.05zm-3-4c0 .2.13.29.4.29a.18.18 0 0 0 .2-.15v-.57c.2-.26.7-.4 1.49-.4a1.72 1.72 0 0 1 .86.15L112 42a2 2 0 0 1-1.24.69 13.17 13.17 0 0 0-1.47.42c-.39.22-.59.92-.59 2.13 0 1 .19 1.66.55 1.89a3.07 3.07 0 0 0 .94.17 2.84 2.84 0 0 0 1.72-.66c0 .43.11.65.28.65a1 1 0 0 0 .64-.18l-.13-3.58v-3.68a.54.54 0 0 0-.47-.45 7.17 7.17 0 0 0-2.46.2c-.56.18-.85.35-.85.54zm-2.47-1.29c-.76-.48-1.66-.33-2.67.46V39v-2.62a.7.7 0 0 0-.72.07v2.75 2.33 2.8 2.75c.08.08.2.1.4.08a.62.62 0 0 0 .41-.14 5.28 5.28 0 0 0 0-1c0-.45-.06-.77-.06-.94V43v-1.22-.94a2.1 2.1 0 0 1 2.44-.3v2.18l-.08 2.22a8.61 8.61 0 0 0 .08 2.3.71.71 0 0 0 .83-.13l-.08-6.77zm-11.07.83a6.62 6.62 0 0 1 0 3l-.38.21a12.12 12.12 0 0 1-2.06.15 7.59 7.59 0 0 1 .42-3.32 1.92 1.92 0 0 1 1.12-.42 1 1 0 0 1 .9.41zm.32 5.65a2.51 2.51 0 0 1-2.23.27 3.79 3.79 0 0 1-.46-1.82 10.86 10.86 0 0 0 2.44-.27L96 44a5.6 5.6 0 0 0 0-4.09c-.21-.4-.71-.59-1.5-.56a1.93 1.93 0 0 0-1.54.55 6.67 6.67 0 0 0-.64 3.61 6.75 6.75 0 0 0 .53 3.37 3.7 3.7 0 0 0 1.57.39 3.54 3.54 0 0 0 1.66-.68c-.08-.24-.15-.38-.3-.43zm-9-6.49a14.19 14.19 0 0 0 .22 1.58l.33 1.51.27 1.27.24 1.28.42 1.83c.42 0 .67 0 .78-.13l.44-1.54.37-1.46a17.56 17.56 0 0 0 .49-2.08l.41-2.13a.84.84 0 0 0-.36-.31c-.18-.08-.3-.06-.38 0l-.44 2.16-.44 2.13c0 .08-.1.4-.25 1a5.93 5.93 0 0 1-.25.92l-.29-1.76-.44-2.27-.38-2.11c0-.08-.17-.1-.4-.05s-.38.11-.39.19zm-1.62-1.6a4.93 4.93 0 0 1 0-1c-.38-.19-.66-.18-.86 0a1.56 1.56 0 0 0 0 .86c0 .08.17.13.44.13s.36.09.37.04zm-.78 6.56v2.45a.46.46 0 0 0 .45.17.52.52 0 0 0 .36-.12L85 41.51l.06-1.86a.41.41 0 0 0-.36-.2.43.43 0 0 0-.45.25zm-4.44-2.85v-1.32-.71a4.26 4.26 0 0 1 0-.72l.11-2.6a.73.73 0 0 0-.8 0v2.75 2.33 2.83 2.79a.42.42 0 0 0 .32.06h.6 1.34a3.07 3.07 0 0 0 .61 0h.6l.2-.16s.08 0 .08-.31 0-.41-.15-.44l-1 .13h-1.74a.77.77 0 0 0-.17-.13l-.09-1.14z" fill="#231f20"></path></svg> 